<svg xmlns="http://www.w3.org/2000/svg" viewBox="0 0 332.62 100"><defs><style>.cls-1{fill:#6495ed;}.cls-2{fill:#e64e4e;}.cls-3{fill:#ffb726;}.cls-4{fill:#34893a;}</style></defs><g id="Layer_2" data-name="Layer 2"><g id="Logo"><path class="cls-1" d="M9.42,14.31h21.2q14.75,0,21.31,4.29T58.5,32.18a16.46,16.46,0,0,1-3.23,10.4A14.34,14.34,0,0,1,46,47.8v.49q7.52,1.43,11.06,5.59c2.36,2.79,3.54,6.55,3.54,11.31q0,9.61-6.72,15.06T35.21,85.69H9.42ZM21.09,43.8H32.32q7.34,0,10.7-2.32c2.24-1.55,3.37-4.18,3.37-7.89,0-3.35-1.22-5.77-3.64-7.27s-6.28-2.25-11.55-2.25H21.09Zm0,9.47V75.88H33.5q7.32,0,11.06-2.81t3.73-8.86q0-5.56-3.81-8.25T32.91,53.27Z" transform="translate(-9.42 -9.72)"/><path class="cls-2" d="M108,85.69l-2.3-7.52h-.39a22.08,22.08,0,0,1-7.86,6.72A24.84,24.84,0,0,1,87.3,86.67q-8,0-12.42-4.3T70.41,70.21q0-8.34,6.2-12.59T95.51,53l9.32-.29V49.8q0-5.17-2.41-7.73t-7.5-2.57a26,26,0,0,0-8,1.22,61.85,61.85,0,0,0-7.32,2.88l-3.71-8.2a39.94,39.94,0,0,1,9.62-3.49,44.11,44.11,0,0,1,9.86-1.2q10.31,0,15.55,4.5t5.25,14.11V85.69ZM90.92,77.88q6.24,0,10-3.49t3.79-9.79V59.91l-6.94.3Q89.7,60.5,86,62.92a8.22,8.22,0,0,0-3.69,7.39,7.23,7.23,0,0,0,2.15,5.59Q86.62,77.88,90.92,77.88Z" transform="translate(-9.42 -9.72)"/><path class="cls-3" d="M177.83,31.69V38L168.6,39.7a14.73,14.73,0,0,1,2.1,4.2,16.34,16.34,0,0,1,.83,5.27q0,8.36-5.76,13.13T149.9,67.09a25.84,25.84,0,0,1-4.69-.39q-3.71,2.3-3.71,5.37a3,3,0,0,0,1.74,2.78c1.15.62,3.28.93,6.37.93H159q8.94,0,13.58,3.81t4.64,11a16,16,0,0,1-7.57,14.16q-7.58,5-21.88,5-11,0-16.84-3.91a12.6,12.6,0,0,1-5.81-11.13,11.87,11.87,0,0,1,3.15-8.38,16.87,16.87,0,0,1,8.81-4.71,8.58,8.58,0,0,1-3.78-3.15,8.16,8.16,0,0,1,.21-9.69,19.9,19.9,0,0,1,5.08-4.15,15,15,0,0,1-6.81-5.88,17.33,17.33,0,0,1-2.61-9.55q0-8.79,5.54-13.62t15.8-4.84a38.82,38.82,0,0,1,4.81.32,29.81,29.81,0,0,1,3.78.66ZM135.4,94.09a6.28,6.28,0,0,0,3.35,5.71c2.22,1.34,5.36,2,9.39,2q9.38,0,14-2.69T166.7,92a5.34,5.34,0,0,0-2.52-5c-1.67-1-4.79-1.49-9.35-1.49h-8.69a12.15,12.15,0,0,0-7.83,2.32A7.59,7.59,0,0,0,135.4,94.09Zm4.93-44.92q0,5.09,2.61,7.81c1.75,1.83,4.24,2.74,7.5,2.74q10,0,10-10.65,0-5.26-2.47-8.13t-7.49-2.85c-3.32,0-5.84.94-7.54,2.83S140.33,45.56,140.33,49.17Z" transform="translate(-9.42 -9.72)"/><path class="cls-1" d="M235.35,85.69H223.83V52.49q0-6.26-2.52-9.33t-8-3.07q-7.23,0-10.62,4.32t-3.39,14.48v26.8H187.84v-76h11.48V29a90.31,90.31,0,0,1-.59,9.92h.73A16,16,0,0,1,206,32.86a21,21,0,0,1,9.74-2.15q19.64,0,19.63,19.78Z" transform="translate(-9.42 -9.72)"/><path class="cls-4" d="M274.9,86.67q-12.6,0-19.7-7.35t-7.1-20.24q0-13.23,6.59-20.8t18.11-7.57q10.69,0,16.9,6.5t6.2,17.87v6.2h-36q.24,7.86,4.25,12.08t11.28,4.23a41.12,41.12,0,0,0,8.91-.91,46.57,46.57,0,0,0,8.86-3V83a35.31,35.31,0,0,1-8.49,2.83A52.47,52.47,0,0,1,274.9,86.67ZM272.8,39.4A11.54,11.54,0,0,0,264,42.87q-3.3,3.47-3.93,10.11h24.51q-.11-6.69-3.22-10.13A11,11,0,0,0,272.8,39.4Z" transform="translate(-9.42 -9.72)"/><path class="cls-2" d="M336.33,30.71a28,28,0,0,1,5.71.49l-1.12,10.69a21.74,21.74,0,0,0-5.08-.58,14.72,14.72,0,0,0-11.16,4.49,16.25,16.25,0,0,0-4.27,11.67V85.69H308.94v-54h9l1.51,9.52H320a21.46,21.46,0,0,1,7-7.67A16.71,16.71,0,0,1,336.33,30.71Z" transform="translate(-9.42 -9.72)"/><path class="cls-1" d="M271.22,108.92v-8.36a3.45,3.45,0,0,0-.66-2.3,2.52,2.52,0,0,0-2-.77,3.31,3.31,0,0,0-2.69,1,5,5,0,0,0-.87,3.21v7.18H263v-8.36a3.45,3.45,0,0,0-.66-2.3,2.55,2.55,0,0,0-2.05-.77,3.19,3.19,0,0,0-2.68,1.1,6,6,0,0,0-.85,3.59v6.74h-1.94V96.07h1.58l.32,1.76h.09a3.9,3.9,0,0,1,1.55-1.46,4.67,4.67,0,0,1,2.25-.53c2,0,3.32.72,3.94,2.18h.09a4.13,4.13,0,0,1,1.66-1.6,5.2,5.2,0,0,1,2.49-.58A4.33,4.33,0,0,1,272.08,97a5,5,0,0,1,1.09,3.58v8.38Z" transform="translate(-9.42 -9.72)"/><path class="cls-1" d="M279,96.07v8.33a3.36,3.36,0,0,0,.72,2.35,2.92,2.92,0,0,0,2.24.77,3.65,3.65,0,0,0,2.94-1.1,5.55,5.55,0,0,0,.93-3.6V96.07h1.95v12.85h-1.61l-.28-1.73h-.1a3.87,3.87,0,0,1-1.66,1.46,5.66,5.66,0,0,1-2.42.5A4.93,4.93,0,0,1,278.2,108a4.75,4.75,0,0,1-1.17-3.57v-8.4Z" transform="translate(-9.42 -9.72)"/><path class="cls-1" d="M300.19,105.41a3.23,3.23,0,0,1-1.34,2.77,6.27,6.27,0,0,1-3.75,1,8.12,8.12,0,0,1-4-.81v-1.8a9.83,9.83,0,0,0,2,.74,8.15,8.15,0,0,0,2,.26,4.64,4.64,0,0,0,2.34-.48,1.68,1.68,0,0,0,.17-2.77,10.64,10.64,0,0,0-2.53-1.26,13.37,13.37,0,0,1-2.55-1.16,3.48,3.48,0,0,1-1.13-1.13,3.05,3.05,0,0,1-.37-1.52,2.87,2.87,0,0,1,1.28-2.47,5.92,5.92,0,0,1,3.51-.91,10.28,10.28,0,0,1,4.05.84l-.69,1.58a9.33,9.33,0,0,0-3.51-.79,4,4,0,0,0-2.08.43,1.34,1.34,0,0,0-.7,1.2,1.4,1.4,0,0,0,.26.87,2.59,2.59,0,0,0,.85.7,21.78,21.78,0,0,0,2.25,1,8.47,8.47,0,0,1,3.09,1.67A3,3,0,0,1,300.19,105.41Z" transform="translate(-9.42 -9.72)"/><path class="cls-1" d="M303.19,92.59a1.3,1.3,0,0,1,.33-1,1.21,1.21,0,0,1,1.63,0,1.28,1.28,0,0,1,.34,1,1.31,1.31,0,0,1-.34,1,1.12,1.12,0,0,1-.81.32,1.1,1.1,0,0,1-.82-.32A1.3,1.3,0,0,1,303.19,92.59Zm2.11,16.33h-1.95V96.07h1.95Z" transform="translate(-9.42 -9.72)"/><path class="cls-1" d="M314.56,109.15a5.47,5.47,0,0,1-4.32-1.72,7,7,0,0,1-1.53-4.85,7.3,7.3,0,0,1,1.55-5,5.58,5.58,0,0,1,4.43-1.76,8.38,8.38,0,0,1,1.85.2,6,6,0,0,1,1.45.47l-.6,1.65a9.19,9.19,0,0,0-1.4-.43,6.54,6.54,0,0,0-1.35-.17q-3.92,0-3.92,5a6,6,0,0,0,1,3.64,3.33,3.33,0,0,0,2.83,1.26,8.64,8.64,0,0,0,3.29-.69v1.72A7,7,0,0,1,314.56,109.15Z" transform="translate(-9.42 -9.72)"/></g></g></svg>